<?xml version="1.0" standalone="no"?>
<!DOCTYPE svg PUBLIC "-//W3C//DTD SVG 20010904//EN"
 "http://www.w3.org/TR/2001/REC-SVG-20010904/DTD/svg10.dtd">
<svg version="1.0" xmlns="http://www.w3.org/2000/svg"
 width="512.000000pt" height="512.000000pt" viewBox="0 0 512.000000 512.000000"
 preserveAspectRatio="xMidYMid meet">
<metadata>
Created by potrace 1.11, written by Peter Selinger 2001-2013
</metadata>
<g transform="translate(0.000000,512.000000) scale(0.100000,-0.100000)"
fill="#000000" stroke="none">
<path d="M183 5011 c-80 -58 -73 167 -73 -2424 0 -2221 1 -2314 19 -2352 10
-23 33 -54 52 -69 l34 -29 2330 6 c2046 5 2360 8 2373 17 1 2 6 3 11 4 23 3
74 51 86 80 16 38 16 111 19 2881 1 1673 0 1792 -16 1821 -10 18 -29 46 -44
63 l-26 31 -2363 0 -2362 0 -40 -29z"/>
</g>
</svg>
